# xmcd
#
# Track frame offsets:
# 150
# 11620
# 26111
# 42346
# 55948
# 70242
# 78805
# 95113
# 107876
# 126209
# 142351
# 156116
# 173510
# 189922
#
# Disc length: 2714 seconds
#
#
# Revision: 0
# Processed by: cddbd v1.5.1PL0 Copyright (c) Steve Scherf et al.
# Submitted via: FreeRIP 2.80 
#
DISCID=be0a980e
DTITLE=Bert Wytinck - "OFF THE RECORD"
DYEAR=2003
DGENRE=Country
TTITLE0=Blue Eyes Crying in the Rain
TTITLE1=Alberta Bound
TTITLE2=Grandpa
TTITLE3=Hey Goog Lookin'
TTITLE4=One Day at a Time
TTITLE5=Two Fingers and a Thumb
TTITLE6=The Auctioneer
TTITLE7=The Chair
TTITLE8=Maggie
TTITLE9=Summer Wages
TTITLE10=Have I Told You Lately
TTITLE11=All of Me
TTITLE12=Moon Glow
TTITLE13=Five Foot Two
EXTD=Cafe Bru - Bert and Annette Wytinck\nBox 228, Cypress River, Manitoba\nCanada, R0K 0P0
EXTT0=
EXTT1=
EXTT2=
EXTT3=
EXTT4=
EXTT5=
EXTT6=
EXTT7=
EXTT8=
EXTT9=
EXTT10=
EXTT11=
EXTT12=
EXTT13=
PLAYORDER=
